<svg xmlns="http://www.w3.org/2000/svg" xml:space="preserve" viewBox="0 0 512 512"><path fill="white" stroke="black" stroke-width="10" d="M53.47 487.62c-14.27 0-27.71-5.56-37.81-15.67C5.57 461.87 0 448.43 0 434.15s5.57-27.72 15.66-37.81l206.59-206.59.45-.51 28.59-28.57c3.01-3.01 9.26-9.26-13.46-32.03-19.83-19.89-47.32-31.31-75.45-31.31l-4.79.1-.85.02c-6.83 0-13.09-3.12-17.16-8.55-3.42-4.56-4.84-10.18-4.03-15.83.81-5.66 3.77-10.63 8.35-14.04 29.42-22.66 64.6-34.67 101.69-34.67 41.75 0 81.77 15.58 112.67 43.89l.45.47c5.01 4.14 16.21 15.34 48.82 48.05 8.98 9.02 11.77 22.5 7.17 34.37-3.33 8.18-1.41 17.35 4.82 23.43 4.01 3.91 9.3 6.03 14.89 6.03 5.8 0 11.25-2.28 15.28-6.42 4.14-4.12 9.53-6.33 15.23-6.33 5.72 0 11.07 2.22 15.09 6.27l22.62 22.7c6.05 6.11 9.41 14.19 9.39 22.74 0 8.55-3.35 16.6-9.43 22.62l-75.64 75.64-.73.67c-5.55 5.54-13.42 8.76-21.85 8.76-8.65 0-16.73-3.37-22.82-9.47l-22.57-22.58c-4.19-4.18-6.39-9.55-6.39-15.25s2.24-11.05 6.29-15.09c4.04-4.03 6.25-9.41 6.25-15.13s-2.21-11.12-6.27-15.15c-4.05-4.05-9.43-6.27-15.15-6.27-5.74 0-11.12 2.22-15.15 6.27l-29.77 29.77-.36.43L91.25 471.97c-10.08 10.11-23.51 15.65-37.78 15.65m-22.73-76.19a31.97 31.97 0 0 0-9.41 22.72c0 8.57 3.35 16.67 9.41 22.71 6.06 6.06 14.15 9.42 22.72 9.42 8.58 0 16.67-3.35 22.72-9.42L275.7 257.35l-45.44-45.44zm365.93-108.69c2.03 2.05 4.74 3.16 7.61 3.16 2.83 0 5.5-1.08 7.5-3.09l75.75-75.74c4.2-4.16 4.22-10.95.08-15.11l-22.72-22.78-90.85 90.81-.41.36zm-105.91-60.49 22.72-22.72c8.06-8.06 18.81-12.5 30.23-12.5 11.44 0 22.19 4.44 30.25 12.52 5.43 5.42 9.2 12.03 11.12 19.26l38.28-38.28c-7.01-1.83-13.46-5.46-18.77-10.65-12.48-12.16-16.29-30.44-9.75-46.6 1.52-3.88.56-8.38-2.45-11.43-37.21-37.32-45.58-45.28-47.43-46.92l-1.1-.9C316.89 59.35 282 45.75 245.6 45.75c-32.35 0-63.05 10.48-88.81 30.32l5.74-.04c33.66 0 66.61 13.7 90.4 37.58 9.35 9.37 37.79 37.85 13.44 62.2l-21.03 21.03z"/></svg>